<mxfile host="app.diagrams.net" agent="Mozilla/5.0 (Macintosh; Intel Mac OS X 10_15_7) AppleWebKit/537.36 (KHTML, like Gecko) Chrome/133.0.0.0 Safari/537.36" version="26.0.14">
  <diagram id="C5RBs43oDa-KdzZeNtuy" name="Page-1">
    <mxGraphModel dx="2010" dy="670" grid="1" gridSize="10" guides="1" tooltips="1" connect="1" arrows="1" fold="1" page="1" pageScale="1" pageWidth="827" pageHeight="1169" math="0" shadow="0">
      <root>
        <mxCell id="WIyWlLk6GJQsqaUBKTNV-0" />
        <mxCell id="WIyWlLk6GJQsqaUBKTNV-1" parent="WIyWlLk6GJQsqaUBKTNV-0" />
        <mxCell id="DhYTxKs9uFXzOIIwbpoh-0" value="Pool" style="swimlane;childLayout=stackLayout;resizeParent=1;resizeParentMax=0;startSize=20;html=1;" vertex="1" parent="WIyWlLk6GJQsqaUBKTNV-1">
          <mxGeometry x="-70" y="10" width="1980" height="1580" as="geometry" />
        </mxCell>
        <mxCell id="DhYTxKs9uFXzOIIwbpoh-1" value="&lt;span style=&quot;font-weight: 400; text-wrap-mode: wrap;&quot;&gt;GlobalPendingGuard&lt;/span&gt;" style="swimlane;startSize=20;html=1;" vertex="1" parent="DhYTxKs9uFXzOIIwbpoh-0">
          <mxGeometry y="20" width="250" height="1560" as="geometry" />
        </mxCell>
        <mxCell id="DhYTxKs9uFXzOIIwbpoh-6" value="Pending Until&lt;div&gt;Get AccessToken&lt;/div&gt;" style="rounded=1;whiteSpace=wrap;html=1;" vertex="1" parent="DhYTxKs9uFXzOIIwbpoh-1">
          <mxGeometry x="65" y="140" width="120" height="60" as="geometry" />
        </mxCell>
        <mxCell id="WIyWlLk6GJQsqaUBKTNV-3" value="Get In Portal" style="rounded=1;whiteSpace=wrap;html=1;fontSize=12;glass=0;strokeWidth=1;shadow=0;" parent="DhYTxKs9uFXzOIIwbpoh-1" vertex="1">
          <mxGeometry x="65" y="30" width="120" height="40" as="geometry" />
        </mxCell>
        <mxCell id="DhYTxKs9uFXzOIIwbpoh-7" style="edgeStyle=orthogonalEdgeStyle;rounded=0;orthogonalLoop=1;jettySize=auto;html=1;entryX=0.5;entryY=0;entryDx=0;entryDy=0;" edge="1" parent="DhYTxKs9uFXzOIIwbpoh-1" source="WIyWlLk6GJQsqaUBKTNV-3" target="DhYTxKs9uFXzOIIwbpoh-6">
          <mxGeometry relative="1" as="geometry" />
        </mxCell>
        <mxCell id="DhYTxKs9uFXzOIIwbpoh-2" value="AuthGuard" style="swimlane;startSize=20;html=1;" vertex="1" parent="DhYTxKs9uFXzOIIwbpoh-0">
          <mxGeometry x="250" y="20" width="200" height="1560" as="geometry" />
        </mxCell>
        <mxCell id="DhYTxKs9uFXzOIIwbpoh-15" value="" style="edgeStyle=orthogonalEdgeStyle;rounded=0;orthogonalLoop=1;jettySize=auto;html=1;" edge="1" parent="DhYTxKs9uFXzOIIwbpoh-2" source="WIyWlLk6GJQsqaUBKTNV-10" target="DhYTxKs9uFXzOIIwbpoh-14">
          <mxGeometry relative="1" as="geometry" />
        </mxCell>
        <mxCell id="WIyWlLk6GJQsqaUBKTNV-10" value="Is Login?" style="rhombus;whiteSpace=wrap;html=1;shadow=0;fontFamily=Helvetica;fontSize=12;align=center;strokeWidth=1;spacing=6;spacingTop=-4;" parent="DhYTxKs9uFXzOIIwbpoh-2" vertex="1">
          <mxGeometry x="40" y="130" width="100" height="80" as="geometry" />
        </mxCell>
        <mxCell id="DhYTxKs9uFXzOIIwbpoh-19" value="Yes" style="edgeStyle=orthogonalEdgeStyle;rounded=0;orthogonalLoop=1;jettySize=auto;html=1;entryX=0.5;entryY=0;entryDx=0;entryDy=0;" edge="1" parent="DhYTxKs9uFXzOIIwbpoh-2" source="DhYTxKs9uFXzOIIwbpoh-14" target="DhYTxKs9uFXzOIIwbpoh-20">
          <mxGeometry relative="1" as="geometry">
            <mxPoint x="90" y="420" as="targetPoint" />
          </mxGeometry>
        </mxCell>
        <mxCell id="DhYTxKs9uFXzOIIwbpoh-14" value="user valid?" style="rhombus;whiteSpace=wrap;html=1;shadow=0;strokeWidth=1;spacing=6;spacingTop=-4;" vertex="1" parent="DhYTxKs9uFXzOIIwbpoh-2">
          <mxGeometry x="45" y="290" width="90" height="80" as="geometry" />
        </mxCell>
        <mxCell id="DhYTxKs9uFXzOIIwbpoh-17" value="Yes" style="text;html=1;align=center;verticalAlign=middle;resizable=0;points=[];autosize=1;strokeColor=none;fillColor=none;" vertex="1" parent="DhYTxKs9uFXzOIIwbpoh-2">
          <mxGeometry x="85" y="230" width="40" height="30" as="geometry" />
        </mxCell>
        <mxCell id="DhYTxKs9uFXzOIIwbpoh-20" value="User Pass MFA?" style="rhombus;whiteSpace=wrap;html=1;" vertex="1" parent="DhYTxKs9uFXzOIIwbpoh-2">
          <mxGeometry x="35" y="435" width="110" height="110" as="geometry" />
        </mxCell>
        <mxCell id="DhYTxKs9uFXzOIIwbpoh-3" value="Session" style="swimlane;startSize=20;html=1;" vertex="1" parent="DhYTxKs9uFXzOIIwbpoh-0">
          <mxGeometry x="450" y="20" width="190" height="1560" as="geometry" />
        </mxCell>
        <mxCell id="WIyWlLk6GJQsqaUBKTNV-12" value="Logout" style="rounded=1;whiteSpace=wrap;html=1;fontSize=12;glass=0;strokeWidth=1;shadow=0;" parent="DhYTxKs9uFXzOIIwbpoh-3" vertex="1">
          <mxGeometry x="35" y="310" width="120" height="40" as="geometry" />
        </mxCell>
        <mxCell id="DhYTxKs9uFXzOIIwbpoh-34" value="Not Verify MFA or Skip?" style="rhombus;whiteSpace=wrap;html=1;rounded=1;glass=0;strokeWidth=1;shadow=0;" vertex="1" parent="DhYTxKs9uFXzOIIwbpoh-3">
          <mxGeometry x="31.869999999999997" y="705" width="141.25" height="130" as="geometry" />
        </mxCell>
        <mxCell id="DhYTxKs9uFXzOIIwbpoh-25" value="Login Page" style="swimlane;startSize=20;html=1;" vertex="1" parent="DhYTxKs9uFXzOIIwbpoh-0">
          <mxGeometry x="640" y="20" width="190" height="1560" as="geometry" />
        </mxCell>
        <mxCell id="DhYTxKs9uFXzOIIwbpoh-31" value="" style="edgeStyle=orthogonalEdgeStyle;rounded=0;orthogonalLoop=1;jettySize=auto;html=1;" edge="1" parent="DhYTxKs9uFXzOIIwbpoh-25" source="DhYTxKs9uFXzOIIwbpoh-26" target="DhYTxKs9uFXzOIIwbpoh-30">
          <mxGeometry relative="1" as="geometry" />
        </mxCell>
        <mxCell id="DhYTxKs9uFXzOIIwbpoh-26" value="Login" style="rounded=1;whiteSpace=wrap;html=1;fontSize=12;glass=0;strokeWidth=1;shadow=0;" vertex="1" parent="DhYTxKs9uFXzOIIwbpoh-25">
          <mxGeometry x="35" y="310" width="120" height="40" as="geometry" />
        </mxCell>
        <mxCell id="DhYTxKs9uFXzOIIwbpoh-33" value="" style="edgeStyle=orthogonalEdgeStyle;rounded=0;orthogonalLoop=1;jettySize=auto;html=1;" edge="1" parent="DhYTxKs9uFXzOIIwbpoh-25" source="DhYTxKs9uFXzOIIwbpoh-30" target="DhYTxKs9uFXzOIIwbpoh-32">
          <mxGeometry relative="1" as="geometry" />
        </mxCell>
        <mxCell id="DhYTxKs9uFXzOIIwbpoh-36" value="Yes" style="edgeLabel;html=1;align=center;verticalAlign=middle;resizable=0;points=[];" vertex="1" connectable="0" parent="DhYTxKs9uFXzOIIwbpoh-33">
          <mxGeometry x="0.0877" y="-1" relative="1" as="geometry">
            <mxPoint as="offset" />
          </mxGeometry>
        </mxCell>
        <mxCell id="DhYTxKs9uFXzOIIwbpoh-38" value="No" style="edgeStyle=orthogonalEdgeStyle;rounded=0;orthogonalLoop=1;jettySize=auto;html=1;" edge="1" parent="DhYTxKs9uFXzOIIwbpoh-25" source="DhYTxKs9uFXzOIIwbpoh-30" target="DhYTxKs9uFXzOIIwbpoh-37">
          <mxGeometry relative="1" as="geometry" />
        </mxCell>
        <mxCell id="DhYTxKs9uFXzOIIwbpoh-30" value="MFA = Pending?" style="rhombus;whiteSpace=wrap;html=1;rounded=1;glass=0;strokeWidth=1;shadow=0;" vertex="1" parent="DhYTxKs9uFXzOIIwbpoh-25">
          <mxGeometry x="43.75" y="390" width="102.5" height="100" as="geometry" />
        </mxCell>
        <mxCell id="DhYTxKs9uFXzOIIwbpoh-32" value="Request MFA Info" style="whiteSpace=wrap;html=1;rounded=1;glass=0;strokeWidth=1;shadow=0;" vertex="1" parent="DhYTxKs9uFXzOIIwbpoh-25">
          <mxGeometry x="-147.5" y="410" width="120" height="60" as="geometry" />
        </mxCell>
        <mxCell id="DhYTxKs9uFXzOIIwbpoh-41" value="" style="edgeStyle=orthogonalEdgeStyle;rounded=0;orthogonalLoop=1;jettySize=auto;html=1;" edge="1" parent="DhYTxKs9uFXzOIIwbpoh-25" source="DhYTxKs9uFXzOIIwbpoh-37" target="DhYTxKs9uFXzOIIwbpoh-40">
          <mxGeometry relative="1" as="geometry" />
        </mxCell>
        <mxCell id="DhYTxKs9uFXzOIIwbpoh-53" value="Yes" style="edgeLabel;html=1;align=center;verticalAlign=middle;resizable=0;points=[];" vertex="1" connectable="0" parent="DhYTxKs9uFXzOIIwbpoh-41">
          <mxGeometry x="-0.0455" relative="1" as="geometry">
            <mxPoint as="offset" />
          </mxGeometry>
        </mxCell>
        <mxCell id="DhYTxKs9uFXzOIIwbpoh-37" value="MFA Verified or Skip?" style="rhombus;whiteSpace=wrap;html=1;rounded=1;glass=0;strokeWidth=1;shadow=0;" vertex="1" parent="DhYTxKs9uFXzOIIwbpoh-25">
          <mxGeometry x="28.75" y="540" width="132.5" height="120" as="geometry" />
        </mxCell>
        <mxCell id="DhYTxKs9uFXzOIIwbpoh-40" value="Get User Info" style="whiteSpace=wrap;html=1;rounded=1;glass=0;strokeWidth=1;shadow=0;" vertex="1" parent="DhYTxKs9uFXzOIIwbpoh-25">
          <mxGeometry x="35" y="740" width="120" height="60" as="geometry" />
        </mxCell>
        <mxCell id="DhYTxKs9uFXzOIIwbpoh-62" value="MFA Guard" style="swimlane;startSize=20;html=1;" vertex="1" parent="DhYTxKs9uFXzOIIwbpoh-0">
          <mxGeometry x="830" y="20" width="190" height="1560" as="geometry" />
        </mxCell>
        <mxCell id="DhYTxKs9uFXzOIIwbpoh-78" value="Wait Verified" style="rounded=1;whiteSpace=wrap;html=1;" vertex="1" parent="DhYTxKs9uFXzOIIwbpoh-62">
          <mxGeometry x="35" y="930" width="120" height="60" as="geometry" />
        </mxCell>
        <mxCell id="DhYTxKs9uFXzOIIwbpoh-76" value="My Companies Page" style="swimlane;startSize=20;html=1;" vertex="1" parent="DhYTxKs9uFXzOIIwbpoh-0">
          <mxGeometry x="1020" y="20" width="230" height="1560" as="geometry" />
        </mxCell>
        <mxCell id="DhYTxKs9uFXzOIIwbpoh-84" value="" style="edgeStyle=orthogonalEdgeStyle;rounded=0;orthogonalLoop=1;jettySize=auto;html=1;" edge="1" parent="DhYTxKs9uFXzOIIwbpoh-76" source="DhYTxKs9uFXzOIIwbpoh-80" target="DhYTxKs9uFXzOIIwbpoh-83">
          <mxGeometry relative="1" as="geometry" />
        </mxCell>
        <mxCell id="DhYTxKs9uFXzOIIwbpoh-80" value="Fetch Subscriptions&lt;br&gt;Fetch My Companies" style="rounded=1;whiteSpace=wrap;html=1;" vertex="1" parent="DhYTxKs9uFXzOIIwbpoh-76">
          <mxGeometry x="50" y="740" width="120" height="60" as="geometry" />
        </mxCell>
        <mxCell id="DhYTxKs9uFXzOIIwbpoh-86" value="" style="edgeStyle=orthogonalEdgeStyle;rounded=0;orthogonalLoop=1;jettySize=auto;html=1;" edge="1" parent="DhYTxKs9uFXzOIIwbpoh-76" source="DhYTxKs9uFXzOIIwbpoh-83" target="DhYTxKs9uFXzOIIwbpoh-85">
          <mxGeometry relative="1" as="geometry" />
        </mxCell>
        <mxCell id="DhYTxKs9uFXzOIIwbpoh-87" value="No" style="edgeLabel;html=1;align=center;verticalAlign=middle;resizable=0;points=[];" vertex="1" connectable="0" parent="DhYTxKs9uFXzOIIwbpoh-86">
          <mxGeometry x="-0.19" y="1" relative="1" as="geometry">
            <mxPoint as="offset" />
          </mxGeometry>
        </mxCell>
        <mxCell id="DhYTxKs9uFXzOIIwbpoh-83" value="Have Valid External Company" style="rhombus;whiteSpace=wrap;html=1;rounded=1;" vertex="1" parent="DhYTxKs9uFXzOIIwbpoh-76">
          <mxGeometry x="20" y="890" width="180" height="170" as="geometry" />
        </mxCell>
        <mxCell id="DhYTxKs9uFXzOIIwbpoh-85" value="Only One Company" style="rhombus;whiteSpace=wrap;html=1;rounded=1;" vertex="1" parent="DhYTxKs9uFXzOIIwbpoh-76">
          <mxGeometry x="50" y="1160" width="120" height="120" as="geometry" />
        </mxCell>
        <mxCell id="DhYTxKs9uFXzOIIwbpoh-88" value="Other Portal Page" style="swimlane;startSize=20;html=1;" vertex="1" parent="DhYTxKs9uFXzOIIwbpoh-0">
          <mxGeometry x="1250" y="20" width="380" height="1560" as="geometry" />
        </mxCell>
        <mxCell id="DhYTxKs9uFXzOIIwbpoh-13" value="" style="edgeStyle=orthogonalEdgeStyle;rounded=0;orthogonalLoop=1;jettySize=auto;html=1;" edge="1" parent="DhYTxKs9uFXzOIIwbpoh-0" source="DhYTxKs9uFXzOIIwbpoh-6" target="WIyWlLk6GJQsqaUBKTNV-10">
          <mxGeometry relative="1" as="geometry" />
        </mxCell>
        <mxCell id="WIyWlLk6GJQsqaUBKTNV-9" value="No" style="edgeStyle=orthogonalEdgeStyle;rounded=0;html=1;jettySize=auto;orthogonalLoop=1;fontSize=11;endArrow=block;endFill=0;endSize=8;strokeWidth=1;shadow=0;labelBackgroundColor=none;" parent="DhYTxKs9uFXzOIIwbpoh-0" source="WIyWlLk6GJQsqaUBKTNV-10" target="WIyWlLk6GJQsqaUBKTNV-12" edge="1">
          <mxGeometry y="10" relative="1" as="geometry">
            <mxPoint as="offset" />
          </mxGeometry>
        </mxCell>
        <mxCell id="DhYTxKs9uFXzOIIwbpoh-21" value="" style="edgeStyle=orthogonalEdgeStyle;rounded=0;orthogonalLoop=1;jettySize=auto;html=1;" edge="1" parent="DhYTxKs9uFXzOIIwbpoh-0" source="DhYTxKs9uFXzOIIwbpoh-14" target="WIyWlLk6GJQsqaUBKTNV-12">
          <mxGeometry relative="1" as="geometry" />
        </mxCell>
        <mxCell id="DhYTxKs9uFXzOIIwbpoh-22" value="No" style="edgeLabel;html=1;align=center;verticalAlign=middle;resizable=0;points=[];" vertex="1" connectable="0" parent="DhYTxKs9uFXzOIIwbpoh-21">
          <mxGeometry x="-0.3" y="1" relative="1" as="geometry">
            <mxPoint y="1" as="offset" />
          </mxGeometry>
        </mxCell>
        <mxCell id="DhYTxKs9uFXzOIIwbpoh-23" style="edgeStyle=orthogonalEdgeStyle;rounded=0;orthogonalLoop=1;jettySize=auto;html=1;entryX=0;entryY=0.5;entryDx=0;entryDy=0;" edge="1" parent="DhYTxKs9uFXzOIIwbpoh-0" source="DhYTxKs9uFXzOIIwbpoh-20" target="WIyWlLk6GJQsqaUBKTNV-12">
          <mxGeometry relative="1" as="geometry" />
        </mxCell>
        <mxCell id="DhYTxKs9uFXzOIIwbpoh-24" value="No" style="edgeLabel;html=1;align=center;verticalAlign=middle;resizable=0;points=[];" vertex="1" connectable="0" parent="DhYTxKs9uFXzOIIwbpoh-23">
          <mxGeometry x="-0.172" relative="1" as="geometry">
            <mxPoint y="1" as="offset" />
          </mxGeometry>
        </mxCell>
        <mxCell id="DhYTxKs9uFXzOIIwbpoh-27" value="" style="edgeStyle=orthogonalEdgeStyle;rounded=0;orthogonalLoop=1;jettySize=auto;html=1;" edge="1" parent="DhYTxKs9uFXzOIIwbpoh-0" source="WIyWlLk6GJQsqaUBKTNV-12" target="DhYTxKs9uFXzOIIwbpoh-26">
          <mxGeometry relative="1" as="geometry" />
        </mxCell>
        <mxCell id="DhYTxKs9uFXzOIIwbpoh-35" value="" style="edgeStyle=orthogonalEdgeStyle;rounded=0;orthogonalLoop=1;jettySize=auto;html=1;" edge="1" parent="DhYTxKs9uFXzOIIwbpoh-0" source="DhYTxKs9uFXzOIIwbpoh-32" target="DhYTxKs9uFXzOIIwbpoh-34">
          <mxGeometry relative="1" as="geometry" />
        </mxCell>
        <mxCell id="DhYTxKs9uFXzOIIwbpoh-54" style="edgeStyle=orthogonalEdgeStyle;rounded=0;orthogonalLoop=1;jettySize=auto;html=1;exitX=1;exitY=0.5;exitDx=0;exitDy=0;entryX=0;entryY=0.5;entryDx=0;entryDy=0;" edge="1" parent="DhYTxKs9uFXzOIIwbpoh-0" source="DhYTxKs9uFXzOIIwbpoh-34" target="DhYTxKs9uFXzOIIwbpoh-40">
          <mxGeometry relative="1" as="geometry" />
        </mxCell>
        <mxCell id="DhYTxKs9uFXzOIIwbpoh-55" value="Yes" style="edgeLabel;html=1;align=center;verticalAlign=middle;resizable=0;points=[];" vertex="1" connectable="0" parent="DhYTxKs9uFXzOIIwbpoh-54">
          <mxGeometry x="-0.4112" y="2" relative="1" as="geometry">
            <mxPoint y="-1" as="offset" />
          </mxGeometry>
        </mxCell>
        <mxCell id="DhYTxKs9uFXzOIIwbpoh-61" value="" style="edgeStyle=orthogonalEdgeStyle;rounded=0;orthogonalLoop=1;jettySize=auto;html=1;exitX=0.5;exitY=1;exitDx=0;exitDy=0;entryX=0;entryY=0.5;entryDx=0;entryDy=0;" edge="1" parent="DhYTxKs9uFXzOIIwbpoh-0" source="DhYTxKs9uFXzOIIwbpoh-34" target="DhYTxKs9uFXzOIIwbpoh-78">
          <mxGeometry relative="1" as="geometry">
            <mxPoint x="850" y="980" as="targetPoint" />
            <Array as="points">
              <mxPoint x="553" y="980" />
            </Array>
          </mxGeometry>
        </mxCell>
        <mxCell id="DhYTxKs9uFXzOIIwbpoh-79" style="edgeStyle=orthogonalEdgeStyle;rounded=0;orthogonalLoop=1;jettySize=auto;html=1;entryX=1;entryY=0.5;entryDx=0;entryDy=0;exitX=0.5;exitY=0;exitDx=0;exitDy=0;" edge="1" parent="DhYTxKs9uFXzOIIwbpoh-0" source="DhYTxKs9uFXzOIIwbpoh-78" target="DhYTxKs9uFXzOIIwbpoh-30">
          <mxGeometry relative="1" as="geometry" />
        </mxCell>
        <mxCell id="DhYTxKs9uFXzOIIwbpoh-81" style="edgeStyle=orthogonalEdgeStyle;rounded=0;orthogonalLoop=1;jettySize=auto;html=1;exitX=1;exitY=0.5;exitDx=0;exitDy=0;entryX=0;entryY=0.5;entryDx=0;entryDy=0;" edge="1" parent="DhYTxKs9uFXzOIIwbpoh-0" source="DhYTxKs9uFXzOIIwbpoh-40" target="DhYTxKs9uFXzOIIwbpoh-80">
          <mxGeometry relative="1" as="geometry" />
        </mxCell>
        <mxCell id="DhYTxKs9uFXzOIIwbpoh-96" style="edgeStyle=orthogonalEdgeStyle;rounded=0;orthogonalLoop=1;jettySize=auto;html=1;exitX=1;exitY=0.5;exitDx=0;exitDy=0;entryX=0;entryY=0.5;entryDx=0;entryDy=0;" edge="1" parent="DhYTxKs9uFXzOIIwbpoh-0" source="DhYTxKs9uFXzOIIwbpoh-83" target="DhYTxKs9uFXzOIIwbpoh-95">
          <mxGeometry relative="1" as="geometry" />
        </mxCell>
        <mxCell id="DhYTxKs9uFXzOIIwbpoh-97" value="Yes" style="edgeLabel;html=1;align=center;verticalAlign=middle;resizable=0;points=[];" vertex="1" connectable="0" parent="DhYTxKs9uFXzOIIwbpoh-96">
          <mxGeometry x="-0.3429" relative="1" as="geometry">
            <mxPoint as="offset" />
          </mxGeometry>
        </mxCell>
        <mxCell id="DhYTxKs9uFXzOIIwbpoh-100" value="" style="edgeStyle=orthogonalEdgeStyle;rounded=0;orthogonalLoop=1;jettySize=auto;html=1;" edge="1" parent="DhYTxKs9uFXzOIIwbpoh-0" source="DhYTxKs9uFXzOIIwbpoh-85" target="DhYTxKs9uFXzOIIwbpoh-99">
          <mxGeometry relative="1" as="geometry" />
        </mxCell>
        <mxCell id="DhYTxKs9uFXzOIIwbpoh-106" value="Other Portal Page" style="swimlane;startSize=20;html=1;" vertex="1" parent="DhYTxKs9uFXzOIIwbpoh-0">
          <mxGeometry x="1630" y="20" width="350" height="1560" as="geometry" />
        </mxCell>
        <mxCell id="DhYTxKs9uFXzOIIwbpoh-102" value="" style="edgeStyle=orthogonalEdgeStyle;rounded=0;orthogonalLoop=1;jettySize=auto;html=1;" edge="1" parent="DhYTxKs9uFXzOIIwbpoh-106" source="DhYTxKs9uFXzOIIwbpoh-99" target="DhYTxKs9uFXzOIIwbpoh-101">
          <mxGeometry relative="1" as="geometry" />
        </mxCell>
        <mxCell id="DhYTxKs9uFXzOIIwbpoh-103" value="No" style="edgeLabel;html=1;align=center;verticalAlign=middle;resizable=0;points=[];" vertex="1" connectable="0" parent="DhYTxKs9uFXzOIIwbpoh-102">
          <mxGeometry x="-0.2" y="-2" relative="1" as="geometry">
            <mxPoint as="offset" />
          </mxGeometry>
        </mxCell>
        <mxCell id="DhYTxKs9uFXzOIIwbpoh-105" value="Yes" style="edgeStyle=orthogonalEdgeStyle;rounded=0;orthogonalLoop=1;jettySize=auto;html=1;" edge="1" parent="DhYTxKs9uFXzOIIwbpoh-106" source="DhYTxKs9uFXzOIIwbpoh-99" target="DhYTxKs9uFXzOIIwbpoh-104">
          <mxGeometry relative="1" as="geometry" />
        </mxCell>
        <mxCell id="DhYTxKs9uFXzOIIwbpoh-99" value="Dashboard Visible?" style="rhombus;whiteSpace=wrap;html=1;rounded=1;" vertex="1" parent="DhYTxKs9uFXzOIIwbpoh-106">
          <mxGeometry x="20" y="1160" width="120" height="120" as="geometry" />
        </mxCell>
        <mxCell id="DhYTxKs9uFXzOIIwbpoh-101" value="Site Page" style="whiteSpace=wrap;html=1;rounded=1;" vertex="1" parent="DhYTxKs9uFXzOIIwbpoh-106">
          <mxGeometry x="20" y="1390" width="120" height="60" as="geometry" />
        </mxCell>
        <mxCell id="DhYTxKs9uFXzOIIwbpoh-104" value="Dashboard Page" style="whiteSpace=wrap;html=1;rounded=1;" vertex="1" parent="DhYTxKs9uFXzOIIwbpoh-106">
          <mxGeometry x="200" y="1190" width="120" height="60" as="geometry" />
        </mxCell>
        <mxCell id="DhYTxKs9uFXzOIIwbpoh-95" value="Navigate to other Inner Page" style="rounded=1;whiteSpace=wrap;html=1;" vertex="1" parent="DhYTxKs9uFXzOIIwbpoh-106">
          <mxGeometry x="115" y="945" width="120" height="60" as="geometry" />
        </mxCell>
      </root>
    </mxGraphModel>
  </diagram>
</mxfile>
